<svg xmlns="http://www.w3.org/2000/svg" viewBox="0 0 192 192" fill="none">
  <rect width="192" height="192" fill="#0f1923"/>
  <rect x="6" y="6" width="32" height="32" fill="#9aa8b8" opacity="0.7"/>
  <rect x="154" y="6" width="32" height="32" fill="#9aa8b8" opacity="0.7"/>
  <rect x="6" y="154" width="32" height="32" fill="#9aa8b8" opacity="0.7"/>
  <rect x="154" y="154" width="32" height="32" fill="#9aa8b8" opacity="0.7"/>
  <rect x="6" y="6" width="13" height="13" fill="#3a7abf"/>
  <rect x="173" y="6" width="13" height="13" fill="#3a7abf"/>
  <rect x="6" y="173" width="13" height="13" fill="#3a7abf"/>
  <rect x="173" y="173" width="13" height="13" fill="#3a7abf"/>
  <rect x="51" y="29" width="90" height="19" rx="3" fill="url(#g1)" transform="rotate(-8,96,38)"/>
  <rect x="29" y="51" width="19" height="90" rx="3" fill="url(#g1)" transform="rotate(-8,38,96)"/>
  <rect x="51" y="144" width="90" height="19" rx="3" fill="url(#g2)" transform="rotate(8,96,154)"/>
  <rect x="102" y="96" width="61" height="19" rx="3" fill="url(#g2)"/>
  <rect x="144" y="96" width="19" height="51" rx="3" fill="url(#g1)"/>
  <rect x="45" y="45" width="16" height="102" rx="3" fill="url(#g3)" transform="rotate(-35,53,96)" opacity="0.85"/>
  <rect x="80" y="45" width="16" height="102" rx="3" fill="url(#g3)" transform="rotate(-35,88,96)" opacity="0.85"/>
  <defs>
    <linearGradient id="g1" x1="0" y1="0" x2="1" y2="1">
      <stop offset="0%" stop-color="#5a9fd4"/>
      <stop offset="100%" stop-color="#1a5296"/>
    </linearGradient>
    <linearGradient id="g2" x1="0" y1="0" x2="1" y2="0">
      <stop offset="0%" stop-color="#1a5296"/>
      <stop offset="100%" stop-color="#5a9fd4"/>
    </linearGradient>
    <linearGradient id="g3" x1="0" y1="0" x2="0" y2="1">
      <stop offset="0%" stop-color="#7ab5e0"/>
      <stop offset="50%" stop-color="#3a7abf"/>
      <stop offset="100%" stop-color="#1a4080"/>
    </linearGradient>
  </defs>
</svg>
